<svg width="22" height="18" viewBox="0 0 26 22" fill="none" stroke="#707989"
    xmlns="http://www.w3.org/2000/svg">
    <g id="solar:wallet-2-linear" clip-path="url(#clip0_289_1154)">
        <g id="Group">
            <path id="Vector" d="M7.1665 14.5V7.5" stroke-width="2" stroke-linecap="round" stroke-linejoin="round"/>
            <path id="Vector_2" d="M23.3052 7.5H20.2695C18.187 7.5 16.5 9.06683 16.5 11C16.5 12.9332 18.1882 14.5 20.2683 14.5H23.3052C23.4032 14.5 23.451 14.5 23.4918 14.4977C24.1218 14.4592 24.6235 13.9937 24.6643 13.4092C24.6667 13.3718 24.6667 13.3263 24.6667 13.2365V8.7635C24.6667 8.67367 24.6667 8.62817 24.6643 8.59083C24.6223 8.00633 24.1218 7.54083 23.4918 7.50233C23.4522 7.5 23.4032 7.5 23.3052 7.5Z" stroke-width="2"/>
            <path id="Vector_3" d="M23.4593 7.50033C23.3683 5.31633 23.0767 3.97699 22.1328 3.03433C20.7667 1.66699 18.5663 1.66699 14.1668 1.66699H10.6668C6.26733 1.66699 4.067 1.66699 2.70083 3.03433C1.3335 4.40049 1.3335 6.60083 1.3335 11.0003C1.3335 15.3998 1.3335 17.6002 2.70083 18.9663C4.067 20.3337 6.26733 20.3337 10.6668 20.3337H14.1668C18.5663 20.3337 20.7667 20.3337 22.1328 18.9663C23.0767 18.0237 23.3695 16.6843 23.4593 14.5003" stroke-width="2"/>
            <path id="Vector_4" d="M19.9897 11H20.001" stroke-width="2.33333" stroke-linecap="round" stroke-linejoin="round"/>
        </g>
    </g>
    <defs>
        <clipPath id="clip0_289_1154">
            <rect width="26" height="21" fill="white" transform="translate(0 0.5)"/>
        </clipPath>
    </defs>
</svg>
