<svg fill="none" height="22" viewBox="0 0 24 24" width="24" stroke="#707989"
    xmlns="http://www.w3.org/2000/svg">
    <path d="m14 2.20004c-.6462-.13118-1.3151-.20004-2-.20004-5.52285 0-10 4.47715-10 10 0 5.5228 4.47715 10 10 10 5.5228 0 10-4.4772 10-10 0-.6849-.0689-1.3538-.2-2"  stroke-linecap="round" stroke-width="1.5"/>
    <path d="m12 9c-1.1046 0-2 .67157-2 1.5 0 .8284.8954 1.5 2 1.5s2 .6716 2 1.5-.8954 1.5-2 1.5m0-6c.8708 0 1.6116.4174 1.8862 1m-1.8862-1v-1m0 7c-.8708 0-1.6116-.4174-1.8862-1m1.8862 1v1" stroke-linecap="round" stroke-width="1.5"/>
    <path d="m22.0699 3.03275c.2942-.29153.2964-.7664.0049-1.06065-.2916-.29425-.7664-.29645-1.0607-.00492zm-5.5978 3.43447c-.2942.29153-.2964.76639-.0049 1.06064s.7664.29646 1.0607.00492zm4.5562-4.2402-.1308.73851zm.7445.74469.7385-.13066zm-4.2627-1.71749c-.4142-.00567-.7545.32549-.7602.73967-.0057.41417.3255.75452.7397.76019zm3.7356 5.25606c.0057.41417.3461.74531.7602.73961.4142-.0057.7453-.34607.7396-.76024zm-.2316-4.5431-4.542 4.50004 1.0558 1.06556 4.542-4.50003zm-.1166.99835c.0505.00894.078.02785.0934.0433.0155.01545.0344.04295.0434.09354l1.477-.26132c-.1241-.70137-.6506-1.22829-1.3522-1.35253zm.2616-1.47701c-1.0147-.17971-2.8122-.22285-3.649-.2343l-.0205 1.49986c.8675.01187 2.5359.05702 3.4079.21145zm1.5864 5.00113c-.0115-.83682-.0547-2.63404-.2342-3.6486l-1.477.26132c.1542.87207.1995 2.54043.2114 3.40791z"/>
</svg>