<svg width="18" height="22" viewBox="0 0 22 26" fill="#707989"
    xmlns="http://www.w3.org/2000/svg">
    <g id="add-document 1" clip-path="url(#clip0_289_1118)">
        <path id="Vector" d="M15.0235 17.0226C15.0235 17.2894 14.9175 17.5452 14.7289 17.7338C14.5403 17.9224 14.2845 18.0284 14.0177 18.0284H12.0062V20.0399C12.0062 20.3066 11.9003 20.5624 11.7117 20.7511C11.523 20.9397 11.2672 21.0456 11.0005 21.0456C10.7338 21.0456 10.4779 20.9397 10.2893 20.7511C10.1007 20.5624 9.99476 20.3066 9.99476 20.0399V18.0284H7.98328C7.71654 18.0284 7.46073 17.9224 7.27212 17.7338C7.08351 17.5452 6.97754 17.2894 6.97754 17.0226C6.97754 16.7559 7.08351 16.5001 7.27212 16.3115C7.46073 16.1229 7.71654 16.0169 7.98328 16.0169H9.99476V14.0054C9.99476 13.7387 10.1007 13.4828 10.2893 13.2942C10.4779 13.1056 10.7338 12.9997 11.0005 12.9997C11.2672 12.9997 11.523 13.1056 11.7117 13.2942C11.9003 13.4828 12.0062 13.7387 12.0062 14.0054V16.0169H14.0177C14.2845 16.0169 14.5403 16.1229 14.7289 16.3115C14.9175 16.5001 15.0235 16.7559 15.0235 17.0226ZM21.0579 11.4759V20.0399C21.0563 21.3731 20.526 22.6512 19.5832 23.594C18.6405 24.5367 17.3624 25.067 16.0292 25.0686H5.97181C4.6386 25.067 3.36047 24.5367 2.41775 23.594C1.47503 22.6512 0.944712 21.3731 0.943115 20.0399V5.95942C0.944712 4.62621 1.47503 3.34806 2.41775 2.40533C3.36047 1.46261 4.6386 0.932284 5.97181 0.930687H10.5127C11.4376 0.928307 12.3538 1.1093 13.2083 1.46319C14.0628 1.81708 14.8387 2.33686 15.4911 2.99247L18.9951 6.4985C19.6511 7.15047 20.1712 7.92612 20.5253 8.78052C20.8794 9.63492 21.0604 10.5511 21.0579 11.4759ZM14.069 4.41459C13.7525 4.108 13.3971 3.84426 13.012 3.63011V7.97092C13.012 8.23766 13.1179 8.49347 13.3065 8.68209C13.4952 8.8707 13.751 8.97666 14.0177 8.97666H18.3585C18.1442 8.59165 17.8801 8.23658 17.573 7.92063L14.069 4.41459ZM19.0464 11.4759C19.0464 11.31 19.0142 11.1511 18.9991 10.9882H14.0177C13.2175 10.9882 12.4501 10.6703 11.8842 10.1044C11.3184 9.53859 11.0005 8.77114 11.0005 7.97092V2.98945C10.8376 2.97436 10.6777 2.94218 10.5127 2.94218H5.97181C5.17159 2.94218 4.40415 3.26007 3.83831 3.82591C3.27248 4.39175 2.95459 5.1592 2.95459 5.95942V20.0399C2.95459 20.8401 3.27248 21.6075 3.83831 22.1734C4.40415 22.7392 5.17159 23.0571 5.97181 23.0571H16.0292C16.8294 23.0571 17.5968 22.7392 18.1627 22.1734C18.7285 21.6075 19.0464 20.8401 19.0464 20.0399V11.4759Z" />
    </g>
    <defs>
        <clipPath id="clip0_289_1118">
            <rect width="20.6895" height="25" fill="white" transform="translate(0.655273 0.5)"/>
        </clipPath>
    </defs>
</svg>
