<svg width="21" height="21" viewBox="0 0 26 26" fill="#707989"
    xmlns="http://www.w3.org/2000/svg">
    <g id="folder-open 1" clip-path="url(#clip0_289_1126)">
        <path id="Vector" d="M24.9719 11.9763C24.4646 11.2951 23.6865 10.9034 22.8365 10.9034H22.375V8.83359C22.375 5.96172 20.0385 3.62526 17.1667 3.62526H11.9C11.7396 3.62526 11.5771 3.58672 11.4344 3.51589L8.14792 1.87214C7.71667 1.65651 7.23333 1.54297 6.75 1.54297H4.66667C2.36875 1.54193 0.5 3.41068 0.5 5.70859V19.2503C0.5 22.1221 2.83646 24.4586 5.70833 24.4586H18.7896C21.1083 24.4586 23.1125 22.9669 23.7917 20.7013L25.3875 14.3305C25.6312 13.5159 25.4792 12.6586 24.9719 11.9763ZM2.58333 19.2503V5.70859C2.58333 4.55964 3.51771 3.62526 4.66667 3.62526H6.75C6.91042 3.62526 7.07292 3.6638 7.21562 3.73464L10.5021 5.37839C10.9333 5.59401 11.4167 5.70755 11.9 5.70755H17.1667C18.8896 5.70755 20.2917 7.10964 20.2917 8.83255V10.9023H9.47396C7.70312 10.9023 6.12187 12.0263 5.52708 13.7357L3.24583 21.1711C2.83125 20.6409 2.58333 19.9742 2.58333 19.2503ZM23.3792 13.7784L21.7833 20.1482C21.3833 21.4805 20.1802 22.3753 18.7896 22.3753H5.70833C5.49167 22.3753 5.28021 22.3534 5.07604 22.3107L7.50729 14.3846C7.79792 13.5482 8.58958 12.9867 9.475 12.9867H22.8375C23.0896 12.9867 23.2365 13.1326 23.301 13.2201C23.3656 13.3076 23.4635 13.4898 23.3792 13.7784Z"/>
    </g>
    <defs>
        <clipPath id="clip0_289_1126">
            <rect width="25" height="25" fill="white" transform="translate(0.5 0.5)"/>
        </clipPath>
    </defs>
</svg>
