<svg width="21" height="20" viewBox="0 0 21 20" fill="none" xmlns="http://www.w3.org/2000/svg">
<g id="printer">
<path id="Vector" d="M5.5 7.50033V1.66699H15.5V7.50033" stroke="#2370F8" stroke-width="1.66667" stroke-linecap="round" stroke-linejoin="round"/>
<path id="Vector_2" d="M5.49984 15H3.83317C3.39114 15 2.96722 14.8244 2.65466 14.5118C2.3421 14.1993 2.1665 13.7754 2.1665 13.3333V9.16667C2.1665 8.72464 2.3421 8.30072 2.65466 7.98816C2.96722 7.6756 3.39114 7.5 3.83317 7.5H17.1665C17.6085 7.5 18.0325 7.6756 18.345 7.98816C18.6576 8.30072 18.8332 8.72464 18.8332 9.16667V13.3333C18.8332 13.7754 18.6576 14.1993 18.345 14.5118C18.0325 14.8244 17.6085 15 17.1665 15H15.4998" stroke="#2370F8" stroke-width="1.66667" stroke-linecap="round" stroke-linejoin="round"/>
<path id="Vector_3" d="M15.5 11.667H5.5V18.3337H15.5V11.667Z" stroke="#2370F8" stroke-width="1.66667" stroke-linecap="round" stroke-linejoin="round"/>
</g>
</svg>
